<?xml version="1.0" encoding="UTF-8" standalone="no"?>
<!DOCTYPE svg PUBLIC "-//W3C//DTD SVG 1.1//EN" "http://www.w3.org/Graphics/SVG/1.1/DTD/svg11.dtd">
<svg width="100%" height="100%" viewBox="0 0 1024 1024" version="1.1" xmlns="http://www.w3.org/2000/svg" xmlns:xlink="http://www.w3.org/1999/xlink" xml:space="preserve" xmlns:serif="http://www.serif.com/" style="fill-rule:evenodd;clip-rule:evenodd;stroke-linejoin:round;stroke-miterlimit:2;">
    <g transform="matrix(0.981641,0,0,0.987383,8.24212,-0.707094)">
        <g id="Layer1">
            <rect x="-9.315" y="-8.413" width="1047.44" height="1047.83" style="fill:rgb(66,66,66);"/>
        </g>
    </g>
    <path d="M938.72,140.48C939.68,100.8 922,63.52 891.12,45.68C844.72,18.88 791.6,32.4 765.44,77.68L753.2,98.4L780.72,114L791.36,95.36C809.12,64.56 844,55.52 874.8,73.28C894.72,84.8 907.76,108.08 907.04,139.84L907.04,632.48L938.8,632.32L938.8,140.48L938.72,140.48Z" style="fill:rgb(189,189,189);fill-rule:nonzero;"/>
    <circle cx="519.68" cy="578.56" r="40" style="fill:url(#_Radial1);"/>
    <circle cx="899.76" cy="588.16" r="45.28" style="fill:url(#_Radial2);"/>
    <circle cx="601.12" cy="586" r="63.12" style="fill:url(#_Radial3);"/>
    <circle cx="695.6" cy="560.96" r="75.68" style="fill:url(#_Radial4);"/>
    <circle cx="808.96" cy="599.04" r="77.92" style="fill:url(#_Radial5);"/>
    <circle cx="783.52" cy="477.52" r="64.56" style="fill:url(#_Radial6);"/>
    <path d="M804.24,79.12C799.44,69.36 785.76,61.84 776.72,61.84C770.4,61.84 767.28,65.84 763.04,73.12C758.88,80.32 761.36,89.6 768.56,93.76L781.68,101.28C788.88,105.44 798.16,102.96 802.32,95.76C806.48,88.56 806.88,84.48 804.24,79.12Z" style="fill:rgb(120,144,156);fill-rule:nonzero;"/>
    <path d="M784.48,84.8C749.92,64.88 703.04,81.36 682.96,115.6C682.96,115.6 703.2,142.08 740.96,163.2C778.72,184.32 808.56,188.08 808.56,188.08C828.16,153.6 819.04,104.8 784.48,84.8Z" style="fill:rgb(189,189,189);fill-rule:nonzero;"/>
    <path d="M792.4,204.96C792.4,204.96 763.52,200.24 727.12,177.76C690.72,155.28 673.44,136.32 673.44,136.32C667.52,130.16 663.68,122.88 667.92,115.6C672.08,108.32 683.44,104.56 688.64,110.08C688.64,110.08 704.16,130.4 742.48,151.6C783.84,174.48 807.6,178.72 807.6,178.72C816.96,180.88 817.36,192.16 813.12,199.44C808.96,206.72 797.92,206.88 792.4,204.96Z" style="fill:rgb(120,144,156);fill-rule:nonzero;"/>
    <path d="M711.76,105.44C715.2,93.36 734.16,84.96 747.2,83.36C759.84,81.76 767.52,85.68 767.44,92.32C767.36,98.64 760,100.64 754.72,100.56C736.08,100.16 728.88,104.24 725.68,106.08C711.76,113.92 711.44,106.72 711.76,105.44Z" style="fill:rgb(223,236,245);fill-rule:nonzero;"/>
    <circle cx="666.16" cy="391.6" r="48.08" style="fill:url(#_Radial7);"/>
    <path d="M631.84,385.68C635.84,385.52 639.2,379.52 646.4,374C652.96,369.04 662.48,366.64 668.24,366.32C671.44,366.16 676,365.12 677.84,361.76C678.88,359.84 677.2,350.4 663.76,352.24C647.92,354.4 634,364.8 630.48,374.24C628.24,380.48 628,385.76 631.84,385.68Z" style="fill:white;fill-opacity:0.8;fill-rule:nonzero;"/>
    <path d="M104.48,607.36C147.04,770 143.6,902.16 289.44,902.16L819.04,906C986.32,904 935.68,686.48 975.12,608.56C841.68,622.72 720.72,624.96 573.52,615.2C468.96,608.32 378.56,541.2 278.08,518.64C208.72,508.16 131.92,491.84 64.16,514.64C81.12,543.92 94.64,575.04 104.48,607.36Z" style="fill:rgb(238,238,238);fill-rule:nonzero;"/>
    <path d="M913.84,658.32C892.56,670.64 891.2,718.56 893.52,744.08C899.92,815.92 893.2,859.28 859.44,874.64C859.36,872 858.88,869.04 857.52,865.68C853.04,854.48 842.8,844.56 830.72,844.48C807.36,844.32 799.6,853.52 786.24,863.6C776.64,870.88 764.48,879.76 747.04,881.76L358,878.96C342.24,878 328.72,869.12 319.12,861.84C304.08,850.4 299.04,846.56 279.52,842.56C267.68,840.16 257.2,847.76 252.8,858.96C250.32,865.12 250,870.16 251.28,874.24C156,861.36 160.72,652.16 109.36,551.92C92.72,519.44 69.12,523.44 70.8,526.4C84.72,552.24 96.08,579.44 104.64,607.52C147.2,770.16 143.76,902.32 289.6,902.32L819.2,906.16C938.8,904.72 954.08,792 962.32,653.44C962.88,641.84 923.76,652.56 913.84,658.32Z" style="fill:rgb(183,213,229);fill-rule:nonzero;"/>
    <path d="M83.28,552.24C122.88,544 163.76,551.36 176,554C295.6,579.84 374.16,630.08 516.16,661.44C673.84,696.24 853.92,685.92 961.6,662.24C961.6,662.24 965.76,633.6 969.36,622.64C969.36,622.64 747.52,651.44 601.12,633.44C448.16,614.64 272.64,529.28 170.48,516.8C93.2,507.36 67.92,523.04 67.92,523.04L83.28,552.24Z" style="fill:rgb(105,161,186);fill-rule:nonzero;"/>
    <path d="M264,842.72C244.72,840.32 241.28,865.12 241.28,865.12C241.28,865.12 229.68,850.56 210.48,855.2C198.72,858.08 194.56,872.8 199.68,876.64C208.8,883.52 239.28,898.88 230.16,920.64C226.64,929.12 216.96,931.6 207.68,935.76C186.4,945.36 178.08,961.2 176,971.36C175.52,973.76 175.36,977.52 180.8,980.4C186.24,983.28 196.24,986 221.76,986C247.28,986 265.2,981.28 268,977.52C277.28,964.88 260,940 279.28,915.36C287.12,905.28 293.36,907.04 313.04,902.4C317.84,901.28 316.96,889.04 310.32,881.12C305.2,874.96 289.28,871.92 279.12,877.44C279.12,877.44 287.84,845.68 264,842.72Z" style="fill:rgb(189,189,189);fill-rule:nonzero;"/>
    <path d="M316.88,880C304.56,866.56 287.04,873.44 283.92,875.12C286.24,873.84 285.04,861.92 284.72,859.92C283.28,850.48 274.88,843.68 265.12,842.88C284.72,852.96 272.8,880.64 272.8,880.64C272.8,880.64 278.56,878.8 286.88,877.2C296.4,875.44 308.4,878.24 309.68,890.8C310.32,896.8 299.92,898.96 296.24,900.08C269.2,908.08 266.96,921.92 264.16,932.24C261.44,942.24 268.56,959.04 263.2,969.12C256.16,982.4 228.48,982.96 208,980.16C192.16,978 176,971.36 176,971.36C176,971.36 175.04,979.36 180.8,982.64C207.92,998 256.88,991.76 271.44,983.28C273.6,982 275.04,980.24 275.52,977.76C276.24,973.6 276.8,966.08 273.84,954.16C270.8,941.84 272.4,928.48 280.88,918.32C288.32,909.44 294.88,908.16 314.08,906C326.4,904.64 323.84,887.52 316.88,880Z" style="fill:rgb(120,144,156);fill-rule:nonzero;"/>
    <path d="M211.84,939.28C223.04,935.52 237.04,935.76 235.36,944.32C234.4,949.2 228.56,951.76 222.24,953.68C215.6,955.6 202.64,956.4 201.6,951.76C200.32,945.92 204.96,941.52 211.84,939.28Z" style="fill:rgb(223,236,245);fill-rule:nonzero;"/>
    <path d="M703.92,648.8C647.6,648.8 530.32,648.8 391.92,595.44C309.6,563.76 173.92,505.92 60.24,531.04C47.36,533.84 34.72,525.76 31.84,512.88C29.04,500.08 37.12,487.36 50,484.48C178.24,456.24 321.76,519.76 410,551.36C545.12,599.76 654.4,600.96 706.4,601.12C793.84,600.88 879.36,599.28 964.16,581.68C977.04,578.96 989.6,587.28 992.32,600.16C994.96,613.04 986.72,625.6 973.84,628.32C884.72,646.8 796.56,648.56 706.56,648.72C705.6,648.8 704.8,648.8 703.92,648.8Z" style="fill:rgb(183,213,229);fill-rule:nonzero;"/>
    <path d="M249.6,623.52C259.52,642.16 260.56,664.24 259.04,685.28C257.52,706.32 253.76,727.36 255.12,748.48C256.32,767.2 272.4,798.4 273.52,809.68C274.32,817.28 267.36,824.16 259.68,824.88C252.08,825.6 244.72,821.84 238.48,817.36C212.56,798.56 198.88,767.04 191.44,735.84C181.36,693.44 170.64,653.12 165.28,639.2C149.76,599.04 175.44,581.04 206,588.88C224.4,593.68 240.64,606.8 249.6,623.52Z" style="fill:white;fill-rule:nonzero;"/>
    <path d="M840.08,842.72C859.36,840.32 862.8,865.12 862.8,865.12C862.8,865.12 874.4,850.56 893.6,855.2C905.36,858.08 907.52,873.6 903.44,877.2C893.76,885.52 864.8,898.88 873.92,920.64C877.44,929.12 887.12,931.6 896.4,935.76C917.68,945.36 926,961.2 928.08,971.36C928.56,973.76 928.72,977.52 923.28,980.4C917.84,983.28 907.84,986 882.32,986C856.8,986 838.88,981.28 836.08,977.52C826.8,964.88 844.08,940 824.8,915.36C816.96,905.28 810.72,907.04 791.04,902.4C786.24,901.28 787.12,889.04 793.76,881.12C798.88,874.96 814.8,871.92 824.96,877.44C824.96,877.44 816.24,845.68 840.08,842.72Z" style="fill:rgb(189,189,189);fill-rule:nonzero;"/>
    <path d="M787.2,880C799.52,866.56 817.04,873.44 820.16,875.12C817.84,873.84 819.04,861.92 819.36,859.92C820.8,850.48 829.2,843.68 838.96,842.88C819.36,852.96 831.28,880.64 831.28,880.64C831.28,880.64 825.52,878.8 817.2,877.2C807.68,875.44 795.68,878.24 794.4,890.8C793.76,896.8 804.16,898.96 807.84,900.08C834.88,908.08 837.12,921.92 839.92,932.24C842.64,942.24 835.52,959.04 840.88,969.12C847.92,982.4 875.6,982.96 896.08,980.16C911.92,978 928.08,971.36 928.08,971.36C928.08,971.36 929.04,979.36 923.28,982.64C896.16,998 847.2,991.76 832.64,983.28C830.48,982 829.04,980.24 828.56,977.76C827.84,973.6 827.28,966.08 830.24,954.16C833.28,941.84 831.68,928.48 823.2,918.32C815.76,909.44 809.2,908.16 790,906C777.68,904.64 780.24,887.52 787.2,880Z" style="fill:rgb(120,144,156);fill-rule:nonzero;"/>
    <path d="M862.64,938.8C856,944.4 849.76,955.44 854.96,961.6C857.12,964.16 864.16,958.24 865.84,956.8C870.24,952.88 874,950.08 878.56,946.32C880.56,944.64 882.24,942.32 881.68,939.76C880.4,934 868.16,934.16 862.64,938.8Z" style="fill:rgb(223,236,245);fill-rule:nonzero;"/>
    <path d="M657.12,544.48C654.72,546.16 652.24,547.84 649.36,548.4C646.48,548.96 643.2,548.32 641.36,546.08C627.12,528.72 671.04,493.76 687.76,500.56C698.8,505.04 700.4,520.24 689.92,525.28C677.76,530.96 668.32,536.48 657.12,544.48Z" style="fill:white;fill-opacity:0.8;fill-rule:nonzero;"/>
    <path d="M748.4,473.2C744.88,472.64 741.68,469.76 740.32,466.4C738.64,462.08 739.36,457.2 740.88,452.88C744.56,442.4 753.2,433.6 763.76,430.16C766.64,429.2 769.68,428.64 772.72,429.12C777.6,429.92 781.76,433.76 783.04,438.56C786.4,451.28 773.12,452.32 766.08,458.4C761.04,462.72 758.4,471.76 751.12,473.2C750.22,473.36 749.3,473.36 748.4,473.2Z" style="fill:white;fill-rule:nonzero;"/>
    <path d="M106.8,501.2C104.16,512.08 115.6,513.92 153.6,513.76C199.36,513.6 231.44,528.4 227.04,518.48C223.84,511.28 191.36,494.08 164.08,491.52C147.44,489.92 110.16,487.84 106.8,501.2Z" style="fill:white;fill-rule:nonzero;"/>
    <defs>
        <radialGradient id="_Radial1" cx="0" cy="0" r="1" gradientUnits="userSpaceOnUse" gradientTransform="matrix(44.2355,4.11712,-4.11712,44.2355,520.772,579.17)"><stop offset="0" style="stop-color:rgb(128,222,234);stop-opacity:0"/><stop offset="0.22" style="stop-color:rgb(128,222,234);stop-opacity:0"/><stop offset="1" style="stop-color:rgb(128,222,234);stop-opacity:0.8"/></radialGradient>
        <radialGradient id="_Radial2" cx="0" cy="0" r="1" gradientUnits="userSpaceOnUse" gradientTransform="matrix(42.8042,26.285,-26.285,42.8042,900.551,589.396)"><stop offset="0" style="stop-color:rgb(128,222,234);stop-opacity:0"/><stop offset="0.26" style="stop-color:rgb(128,222,234);stop-opacity:0"/><stop offset="1" style="stop-color:rgb(128,222,234);stop-opacity:0.8"/></radialGradient>
        <radialGradient id="_Radial3" cx="0" cy="0" r="1" gradientUnits="userSpaceOnUse" gradientTransform="matrix(69.7815,6.49476,-6.49476,69.7815,601.892,591.134)"><stop offset="0" style="stop-color:rgb(128,222,234);stop-opacity:0"/><stop offset="0.3" style="stop-color:rgb(128,222,234);stop-opacity:0"/><stop offset="1" style="stop-color:rgb(128,222,234);stop-opacity:0.8"/></radialGradient>
        <radialGradient id="_Radial4" cx="0" cy="0" r="1" gradientUnits="userSpaceOnUse" gradientTransform="matrix(83.6288,7.78356,-7.78356,83.6288,697.757,562.211)"><stop offset="0" style="stop-color:rgb(128,222,234);stop-opacity:0"/><stop offset="0.26" style="stop-color:rgb(128,222,234);stop-opacity:0"/><stop offset="1" style="stop-color:rgb(128,222,234);stop-opacity:0.8"/></radialGradient>
        <radialGradient id="_Radial5" cx="0" cy="0" r="1" gradientUnits="userSpaceOnUse" gradientTransform="matrix(86.1013,8.01368,-8.01368,86.1013,811.158,600.333)"><stop offset="0" style="stop-color:rgb(128,222,234);stop-opacity:0"/><stop offset="0.26" style="stop-color:rgb(128,222,234);stop-opacity:0"/><stop offset="1" style="stop-color:rgb(128,222,234);stop-opacity:0.8"/></radialGradient>
        <radialGradient id="_Radial6" cx="0" cy="0" r="1" gradientUnits="userSpaceOnUse" gradientTransform="matrix(66.0258,38.6649,-39.0044,66.6122,784.856,481.135)"><stop offset="0" style="stop-color:rgb(128,222,234);stop-opacity:0"/><stop offset="0.38" style="stop-color:rgb(128,222,234);stop-opacity:0"/><stop offset="1" style="stop-color:rgb(128,222,234);stop-opacity:0.8"/></radialGradient>
        <radialGradient id="_Radial7" cx="0" cy="0" r="1" gradientUnits="userSpaceOnUse" gradientTransform="matrix(49.528,4.6097,-4.6097,49.528,672.744,398.729)"><stop offset="0" style="stop-color:rgb(128,222,234);stop-opacity:0"/><stop offset="0.38" style="stop-color:rgb(128,222,234);stop-opacity:0"/><stop offset="1" style="stop-color:rgb(128,222,234);stop-opacity:0.8"/></radialGradient>
    </defs>
</svg>
